<?xml version="1.0" standalone="no"?>
<!DOCTYPE svg PUBLIC "-//W3C//DTD SVG 20010904//EN"
 "http://www.w3.org/TR/2001/REC-SVG-20010904/DTD/svg10.dtd">
<svg version="1.0" xmlns="http://www.w3.org/2000/svg"
 width="1280.000000pt" height="1286.000000pt" viewBox="0 0 1280.000000 1286.000000"
 preserveAspectRatio="xMidYMid meet">

<g transform="translate(0.000000,1286.000000) scale(0.100000,-0.100000)"
fill="#000000" stroke="none">
<path d="M6140 12853 c-585 -30 -1098 -118 -1616 -277 -2016 -618 -3629 -2238
-4244 -4261 -411 -1351 -365 -2826 127 -4145 408 -1093 1110 -2054 2046 -2798
1657 -1319 3907 -1720 5943 -1061 1721 557 3151 1853 3889 3524 250 566 416
1173 495 1814 18 149 20 223 20 781 0 557 -2 632 -20 781 -132 1073 -519 2073
-1138 2942 -1004 1408 -2498 2345 -4182 2621 -414 68 -939 99 -1320 79z m825
-87 c974 -89 1880 -384 2706 -882 1523 -918 2599 -2434 2955 -4168 90 -440
127 -813 128 -1281 0 -413 -25 -715 -94 -1111 -354 -2033 -1702 -3790 -3577
-4664 -676 -314 -1366 -498 -2148 -572 -187 -17 -853 -17 -1040 0 -1180 111
-2221 494 -3150 1157 -314 225 -533 411 -815 694 -496 498 -877 1026 -1188
1646 -361 722 -569 1457 -648 2290 -22 224 -25 828 -6 1045 98 1122 438 2110
1037 3015 1026 1550 2668 2575 4495 2804 134 17 280 30 500 45 123 8 686 -4
845 -18z"/>
<path d="M6080 12601 l-55 -6 3 -40 c1 -22 9 -121 17 -219 8 -99 14 -181 12
-182 -2 -2 -70 91 -151 206 l-147 210 -38 0 c-21 0 -52 -3 -68 -6 l-29 -6 28
-316 c15 -174 27 -323 28 -329 0 -14 96 -18 117 -5 8 5 7 61 -7 227 -11 120
-18 221 -16 222 2 2 70 -94 152 -212 l149 -215 65 6 c36 3 66 7 66 7 1 1 -11
148 -27 327 -15 179 -28 328 -29 333 0 4 -3 6 -7 5 -5 -1 -33 -4 -63 -7z"/>
<path d="M6561 12589 c-5 -13 -59 -154 -121 -314 -62 -159 -115 -297 -117
-307 -4 -14 5 -17 60 -20 l66 -3 23 60 24 60 84 3 c98 4 170 -5 170 -20 0 -5
7 -34 16 -64 l15 -54 65 0 c40 0 64 4 64 11 0 15 -189 652 -196 658 -3 3 -36
7 -74 9 -66 4 -70 3 -79 -19z m109 -269 c17 -63 33 -122 36 -131 4 -14 -6 -15
-78 -11 -46 2 -84 5 -85 6 -2 2 18 60 44 129 25 70 47 126 48 125 2 -2 17 -55
35 -118z"/>
<path d="M6986 12539 c-4 -28 -5 -54 -2 -56 3 -3 44 -10 92 -17 49 -6 89 -17
91 -23 3 -7 -12 -130 -32 -274 -20 -144 -34 -263 -32 -265 2 -2 31 -7 64 -10
l60 -7 32 239 c45 330 39 304 70 304 14 0 55 -5 90 -10 35 -6 65 -9 68 -7 2 2
6 27 10 55 5 48 4 51 -18 56 -22 5 -467 66 -481 66 -3 0 -8 -23 -12 -51z"/>
<path d="M7660 12478 c0 -2 -31 -147 -70 -323 -38 -176 -66 -323 -62 -326 8
-6 114 -31 117 -27 2 3 136 622 139 642 0 5 -10 12 -24 16 -36 10 -100 21
-100 18z"/>
<path d="M4845 12403 c-115 -31 -211 -56 -212 -57 -4 -3 160 -631 166 -638 7
-8 445 103 457 115 3 3 0 29 -7 56 -10 38 -17 50 -28 47 -9 -3 -79 -21 -156
-41 -77 -20 -147 -38 -155 -41 -12 -3 -20 14 -35 73 -11 43 -20 82 -20 87 0 5
64 26 143 47 79 20 146 39 148 42 9 8 -20 97 -31 97 -6 0 -73 -16 -149 -36
-76 -19 -139 -34 -141 -32 -6 7 -43 148 -39 148 5 0 318 82 321 84 9 6 -26
101 -38 103 -8 1 -108 -23 -224 -54z"/>
<path d="M8094 12332 c-172 -61 -276 -288 -219 -479 20 -68 88 -143 157 -174
74 -33 194 -34 256 -1 191 101 262 406 132 564 -69 84 -225 127 -326 90z m139
-113 c54 -15 105 -63 118 -112 24 -90 -11 -216 -78 -283 -81 -82 -213 -63
-265 38 -58 111 16 314 127 353 49 17 51 17 98 4z"/>
<path d="M4183 12201 c-101 -34 -174 -113 -193 -207 -37 -176 88 -413 241
-458 65 -20 92 -20 155 -1 68 20 138 67 168 112 35 53 51 136 37 190 l-11 41
-58 -23 c-48 -20 -57 -27 -54 -47 13 -101 -87 -185 -187 -158 -78 21 -156 145
-168 265 -7 72 26 132 90 164 58 29 103 23 151 -20 l34 -29 56 21 c31 12 56
25 56 28 0 13 -47 70 -74 92 -33 26 -107 49 -155 49 -20 -1 -59 -9 -88 -19z"/>
<path d="M8626 11850 c-76 -165 -137 -302 -135 -304 2 -2 28 -16 57 -30 l53
-27 50 108 c28 59 69 149 92 198 45 101 57 118 57 90 1 -44 48 -506 52 -510 2
-2 29 -15 58 -28 l55 -25 132 287 c73 157 135 294 139 303 4 13 -7 23 -46 43
-29 15 -56 23 -61 18 -4 -4 -47 -91 -94 -193 -47 -102 -90 -189 -94 -193 -4
-4 -11 29 -14 73 -4 45 -14 162 -23 260 l-17 179 -51 21 c-28 12 -55 24 -61
26 -5 2 -73 -131 -149 -296z"/>
<path d="M3668 11964 c-27 -13 -48 -27 -48 -29 0 -5 290 -587 295 -593 2 -2
28 9 58 25 l55 28 -146 298 c-80 163 -150 297 -156 297 -6 -1 -32 -12 -58 -26z"/>
<path d="M9340 11495 c-146 -119 -266 -219 -268 -224 -3 -8 88 -71 102 -71 5
0 30 18 57 41 55 46 43 49 176 -37 l81 -52 -15 -68 c-9 -38 -12 -69 -7 -71 5
-2 29 -16 54 -33 24 -16 47 -26 51 -22 7 8 159 649 159 669 0 9 -109 84 -121
83 -2 0 -123 -97 -269 -215z m209 -99 c-17 -69 -34 -126 -38 -126 -3 0 -36 20
-73 43 l-67 43 102 86 c56 48 103 85 105 84 1 -2 -11 -60 -29 -130z"/>
<path d="M3130 11659 c-25 -16 -49 -30 -55 -32 -9 -3 318 -562 335 -572 3 -2
90 46 193 108 l186 111 -21 36 c-41 69 -16 76 -274 -81 l-31 -19 -133 223
c-73 122 -138 229 -144 238 -10 14 -16 13 -56 -12z"/>
<path d="M6120 11683 c-893 -61 -1660 -296 -2395 -736 -378 -226 -678 -460
-1001 -782 -340 -339 -586 -653 -827 -1054 -92 -155 -292 -562 -360 -736 -180
-456 -290 -911 -349 -1445 -17 -157 -17 -834 0 -1000 92 -873 365 -1660 820
-2360 394 -607 909 -1129 1507 -1525 765 -508 1600 -794 2524 -865 172 -13
580 -13 747 0 1138 89 2137 496 3014 1229 117 98 454 422 470 452 7 12 -37
131 -157 430 -91 228 -170 425 -175 439 l-10 25 -21 -26 c-12 -14 -62 -75
-112 -135 -650 -788 -1607 -1344 -2615 -1519 -247 -42 -395 -56 -665 -62 -279
-6 -470 4 -715 38 -1234 171 -2348 871 -3045 1914 -184 275 -315 522 -433 815
-466 1156 -415 2483 138 3605 331 670 813 1231 1437 1674 513 364 1154 625
1794 730 287 47 404 56 744 55 522 -1 913 -61 1360 -208 187 -62 390 -146 378
-156 -4 -4 -96 -35 -203 -69 -1033 -333 -1951 -789 -2692 -1338 -742 -551
-1303 -1178 -1696 -1899 -61 -111 -202 -404 -202 -419 0 -3 -66 -96 -147 -207
-81 -112 -187 -264 -236 -338 -103 -157 -242 -434 -287 -570 -30 -90 -32 -101
-27 -210 3 -80 11 -136 27 -185 19 -62 30 -78 90 -137 84 -81 185 -134 280
-147 51 -6 67 -13 80 -32 33 -50 113 -118 180 -153 180 -95 374 -135 685 -143
l210 -6 100 -95 c165 -157 260 -219 377 -247 74 -17 168 -20 168 -4 0 6 -48
122 -106 257 -58 136 -108 252 -110 258 -5 11 171 115 287 168 233 108 478
125 656 46 37 -16 43 -23 43 -50 0 -45 36 -145 74 -204 18 -28 73 -101 122
-163 153 -191 197 -284 198 -418 1 -86 -12 -111 -102 -204 -55 -57 -77 -72
-121 -85 -116 -34 -216 -17 -442 74 -82 33 -155 60 -163 60 -27 0 -27 -38 -2
-110 52 -150 148 -252 323 -342 59 -31 130 -63 156 -73 26 -10 52 -26 57 -35
5 -9 21 -82 35 -161 14 -79 36 -181 50 -225 24 -78 28 -85 104 -155 123 -116
267 -193 439 -234 196 -46 249 -55 327 -55 127 0 269 46 362 117 23 18 61 44
84 59 96 60 171 166 200 284 21 86 15 245 -16 420 -74 413 -6 763 201 1036
l61 80 -91 19 c-450 90 -642 153 -817 266 -121 79 -192 151 -210 214 -20 70
-16 220 10 335 31 141 25 267 -14 300 -13 11 -13 8 0 -23 11 -28 12 -43 4 -64
-10 -27 -11 -27 -25 -9 -8 11 -14 23 -14 28 0 4 -26 25 -57 47 -120 81 -204
183 -244 296 -31 86 -38 302 -14 409 34 155 127 294 260 392 36 27 62 51 58
54 -5 4 -27 13 -51 20 -62 19 -117 71 -153 145 -30 61 -31 69 -25 137 19 193
114 320 442 596 159 134 223 205 271 299 44 89 56 193 29 257 -15 36 -18 38
-47 32 -66 -13 -207 88 -210 152 -5 80 21 164 67 220 18 22 20 22 63 7 24 -8
45 -15 47 -15 1 0 17 25 34 55 17 31 79 119 136 196 110 149 164 237 184 304
23 75 180 268 320 392 168 150 397 290 633 387 286 119 735 229 1102 271 124
14 451 35 544 35 56 0 57 0 -137 155 -305 245 -612 441 -967 615 -638 314
-1249 478 -1970 530 -126 9 -522 11 -635 3z m-4012 -3087 c138 -76 252 -139
252 -141 0 -1 -22 -49 -48 -106 -216 -461 -352 -956 -408 -1485 -24 -220 -24
-690 -1 -904 83 -744 317 -1412 710 -2018 34 -53 56 -97 51 -101 -21 -20 -448
-333 -459 -337 -12 -5 -105 130 -200 291 -381 644 -605 1324 -691 2095 -22
191 -29 647 -15 855 43 615 179 1176 418 1728 80 186 121 269 131 264 4 -2
121 -66 260 -141z m2552 -1370 c68 -11 76 -15 90 -41 26 -52 18 -169 -26 -372
-3 -18 -11 -23 -37 -23 -45 0 -68 19 -102 85 -39 78 -44 149 -15 209 l22 46
-31 38 c-17 22 -37 45 -46 52 -37 31 -23 31 145 6z"/>
<path d="M9878 11145 c-112 -141 -204 -260 -206 -264 -3 -9 323 -271 337 -271
4 0 22 18 39 40 l32 39 -120 97 c-67 53 -119 100 -118 103 2 4 77 101 168 215
91 114 166 211 167 214 1 4 -20 24 -47 45 l-49 37 -203 -255z"/>
<path d="M2723 11372 c-101 -36 -180 -124 -203 -226 -32 -145 80 -341 237
-414 212 -97 456 91 413 317 -16 83 -54 156 -115 220 -98 103 -223 142 -332
103z m166 -132 c55 -28 127 -111 146 -171 54 -161 -83 -290 -231 -218 -92 44
-170 170 -162 260 12 118 139 185 247 129z"/>
<path d="M10342 10747 l-232 -232 173 -173 173 -172 39 40 39 40 -124 125
-124 124 55 59 c29 33 58 60 64 61 5 0 58 -47 117 -106 l108 -108 37 38 38 37
-108 108 c-59 59 -107 112 -107 118 0 5 23 32 50 59 l50 49 120 -119 120 -119
40 39 40 39 -162 163 c-90 90 -165 163 -168 163 -3 0 -110 -105 -238 -233z"/>
<path d="M2170 10900 c-19 -10 -86 -70 -147 -132 l-112 -113 233 -235 234
-235 49 42 48 42 -85 86 -84 85 60 62 c93 96 109 123 108 188 0 60 -17 100
-66 155 -63 73 -163 96 -238 55z m145 -145 c27 -28 35 -44 35 -71 0 -31 -9
-46 -62 -100 l-63 -65 -73 74 -73 73 65 62 c54 52 70 62 100 62 27 0 43 -8 71
-35z"/>
<path d="M1556 9664 c-45 -46 -33 -119 25 -150 77 -39 158 40 124 122 -25 60
-102 74 -149 28z"/>
<path d="M11285 9665 c-34 -33 -34 -93 -1 -132 19 -22 32 -28 66 -28 55 0 90
37 90 96 0 55 -34 89 -90 89 -30 0 -47 -6 -65 -25z"/>
<path d="M11932 8920 l-42 -19 19 -48 c10 -26 38 -95 61 -153 23 -58 44 -110
47 -116 4 -11 -153 -81 -161 -73 -3 2 -27 63 -56 134 -28 72 -55 134 -60 139
-11 11 -102 -24 -97 -38 3 -6 28 -68 56 -139 28 -70 51 -131 51 -135 0 -12
-133 -63 -141 -54 -4 4 -33 72 -65 152 -31 80 -58 146 -59 148 -6 8 -105 -43
-102 -52 115 -289 161 -403 168 -410 6 -7 600 224 618 240 7 6 -174 444 -184
443 -5 0 -29 -9 -53 -19z"/>
<path d="M765 8773 c-67 -170 -74 -229 -38 -298 62 -117 226 -207 378 -207 88
-1 144 22 190 74 40 47 154 323 139 337 -9 8 -594 241 -606 241 -3 0 -31 -66
-63 -147z m335 -97 c210 -85 200 -73 151 -181 -48 -104 -104 -125 -233 -85
-135 42 -207 119 -188 203 4 21 18 63 30 93 17 41 27 53 39 49 9 -2 99 -38
201 -79z"/>
<path d="M12202 8297 c-13 -13 -51 -32 -85 -42 -99 -29 -134 -50 -148 -89
l-12 -33 -35 23 c-76 52 -180 37 -246 -36 -31 -34 -36 -47 -36 -88 -1 -65 89
-392 108 -392 20 0 605 161 614 169 8 7 -21 121 -31 121 -3 0 -53 -13 -111
-30 -58 -16 -112 -30 -121 -30 -12 0 -22 23 -38 83 -12 45 -21 91 -21 103 0
32 30 53 111 75 41 11 84 27 96 34 21 14 21 16 6 72 -22 84 -25 88 -51 60z
m-298 -249 c18 -16 33 -51 51 -117 14 -51 25 -95 23 -96 -8 -8 -161 -46 -165
-41 -9 9 -53 170 -53 197 0 28 21 52 60 68 39 15 57 13 84 -11z"/>
<path d="M575 8215 c-9 -32 -13 -61 -8 -65 9 -9 614 -193 618 -188 11 14 35
111 29 117 -7 6 -478 152 -606 188 -12 4 -20 -8 -33 -52z"/>
<path d="M486 7928 c-4 -24 -9 -52 -12 -64 -5 -19 3 -23 110 -44 64 -13 121
-27 127 -31 8 -5 7 -28 -6 -85 -31 -140 -40 -147 -166 -119 -113 24 -122 20
-138 -60 -7 -36 -11 -68 -8 -71 3 -3 15 -1 26 5 15 9 44 7 116 -5 105 -18 145
-11 166 29 10 18 12 17 29 -19 21 -47 43 -68 93 -89 77 -32 184 -6 219 53 20
33 100 394 90 403 -4 3 -140 34 -302 68 -162 35 -304 65 -316 68 -18 4 -22 -1
-28 -39z m511 -201 c11 -11 -39 -199 -58 -218 -36 -36 -133 -12 -145 36 -5 22
12 135 32 206 4 15 11 15 85 -1 44 -10 83 -21 86 -23z"/>
<path d="M12060 7563 c-162 -31 -297 -58 -299 -59 -4 -4 17 -115 23 -121 4 -4
635 113 641 119 1 2 -2 29 -8 61 -9 52 -12 57 -36 56 -14 0 -159 -26 -321 -56z"/>
<path d="M12130 7206 l-305 -142 4 -54 c6 -99 -18 -87 342 -173 178 -43 329
-77 334 -77 16 0 2 119 -15 130 -7 4 -32 11 -54 14 -23 4 -47 10 -54 15 -12 7
-32 137 -32 212 0 35 2 37 61 63 60 26 61 27 55 57 -3 18 -6 47 -6 65 0 21 -5
34 -12 33 -7 0 -150 -65 -318 -143z m115 -143 c3 -27 7 -63 10 -80 2 -21 -1
-33 -8 -33 -7 0 -68 12 -136 27 l-124 27 74 33 c41 18 92 42 114 52 58 28 63
27 70 -26z"/>
<path d="M341 7025 c-13 -130 -21 -239 -18 -241 2 -3 27 -7 54 -11 l50 -5 6
48 c4 27 12 107 18 178 l13 128 44 -6 c25 -3 59 -6 76 -6 57 0 57 -2 41 -165
-8 -81 -14 -149 -13 -150 2 -1 27 -5 56 -9 49 -6 52 -6 53 16 1 54 27 279 32
284 3 4 36 3 72 -1 l65 -7 -1 -36 c0 -20 -6 -95 -13 -167 -8 -71 -13 -131 -12
-131 0 -1 26 -4 56 -5 l55 -4 17 175 c9 96 19 200 22 230 l7 56 -293 28 c-161
15 -309 30 -329 33 l-36 5 -22 -237z"/>
<path d="M485 6610 c-125 -40 -195 -136 -195 -266 0 -81 17 -138 57 -191 30
-39 111 -83 156 -83 26 0 27 1 27 60 0 49 -3 62 -17 66 -79 24 -113 66 -113
139 0 112 77 167 236 167 125 0 200 -41 222 -124 19 -70 -10 -139 -70 -165
l-38 -17 0 -64 0 -64 33 7 c56 12 96 36 136 81 46 52 61 100 61 190 0 118 -58
207 -165 256 -72 32 -244 36 -330 8z"/>
<path d="M12088 6613 l-228 -3 0 -65 0 -65 128 0 c70 0 218 3 330 7 l202 6 0
64 0 63 -102 -2 c-57 -2 -205 -4 -330 -5z"/>
<path d="M11972 6324 c-144 -72 -185 -280 -84 -420 59 -81 205 -132 347 -121
171 13 277 107 292 260 11 125 -41 227 -142 273 -79 37 -85 35 -85 -38 l0 -63
40 -17 c56 -23 82 -69 77 -136 -4 -60 -27 -97 -78 -127 -28 -17 -52 -20 -139
-20 -118 0 -164 16 -213 75 -68 80 -31 208 65 227 24 5 28 10 28 38 0 18 3 47
6 64 6 30 5 31 -28 31 -19 0 -58 -12 -86 -26z"/>
<path d="M913 6013 c-41 -4 -43 -6 -43 -36 0 -18 5 -61 10 -97 5 -35 7 -66 5
-68 -2 -2 -121 -19 -265 -37 -144 -18 -264 -35 -267 -38 -3 -3 -2 -33 2 -66 7
-58 8 -60 33 -55 78 13 506 63 512 59 5 -3 11 -40 15 -83 4 -43 10 -83 13 -89
4 -6 28 -9 60 -5 52 5 54 6 49 31 -3 14 -18 131 -33 259 -17 140 -32 231 -39
230 -5 -1 -29 -3 -52 -5z"/>
<path d="M11805 5649 c-4 -33 -6 -62 -4 -63 6 -5 642 -96 646 -93 7 7 15 127
9 127 -4 0 -146 20 -317 45 -171 25 -314 45 -319 45 -4 0 -11 -27 -15 -61z"/>
<path d="M730 5354 c-173 -35 -315 -63 -316 -64 -7 -2 25 -115 33 -117 7 -3
152 24 322 58 217 43 311 66 311 75 0 27 -22 114 -28 113 -4 -1 -149 -30 -322
-65z"/>
<path d="M11900 5401 c-65 -20 -110 -52 -137 -98 -27 -47 -106 -342 -94 -354
7 -7 632 -151 636 -147 1 2 17 67 34 145 47 214 43 264 -32 341 -49 51 -113
86 -194 107 -60 16 -171 19 -213 6z m214 -141 c74 -23 130 -70 139 -116 6 -29
-19 -173 -31 -186 -6 -5 -359 70 -408 87 -13 4 6 102 31 162 31 73 136 94 269
53z"/>
<path d="M790 5107 c-165 -47 -270 -165 -270 -303 0 -254 244 -386 496 -268
73 34 139 96 170 160 24 48 26 63 22 132 -8 128 -65 220 -167 265 -57 25 -186
32 -251 14z m226 -143 c44 -32 66 -68 71 -117 7 -63 -2 -91 -42 -136 -68 -75
-210 -111 -300 -76 -128 48 -141 219 -24 301 56 39 115 54 196 51 54 -2 79 -7
99 -23z"/>
<path d="M11593 4761 l-22 -59 117 -43 c64 -23 163 -59 219 -79 121 -44 150
-62 164 -98 28 -72 -38 -182 -109 -182 -10 0 -119 36 -241 80 -122 44 -225 80
-230 80 -4 0 -15 -25 -25 -56 -14 -45 -15 -58 -5 -65 26 -16 440 -159 478
-165 110 -18 214 73 248 215 28 119 -12 214 -112 264 -25 12 -449 167 -458
167 -2 0 -13 -27 -24 -59z"/>
<path d="M1006 4390 c-165 -72 -301 -132 -304 -135 -6 -6 38 -115 47 -115 3 0
95 39 204 86 109 47 200 84 202 82 3 -2 -65 -98 -149 -212 l-154 -209 25 -56
c14 -31 26 -57 27 -58 6 -6 601 257 604 266 3 9 -37 111 -44 111 -2 0 -92 -38
-200 -85 -108 -47 -199 -83 -201 -81 -2 2 64 96 147 209 l151 206 -28 60 -28
60 -299 -129z"/>
<path d="M11366 4162 c-15 -30 -24 -58 -19 -62 4 -4 105 -53 223 -110 118 -57
223 -110 232 -118 27 -23 31 -48 12 -87 -21 -45 -50 -52 -109 -26 -26 11 -50
19 -54 17 -4 -3 -18 -28 -31 -56 -28 -59 -29 -57 60 -91 90 -34 171 -9 222 68
55 84 63 162 23 229 -23 38 -40 50 -173 117 -81 41 -195 97 -253 125 l-106 49
-27 -55z"/>
<path d="M1510 3588 c-77 -27 -166 -85 -211 -136 -102 -116 -105 -275 -8 -386
77 -88 157 -116 255 -90 33 8 63 19 68 24 4 4 -6 30 -25 57 -18 26 -33 49 -34
50 0 1 -18 -2 -39 -8 -50 -14 -96 2 -135 46 -60 69 -51 154 24 229 56 56 142
98 209 104 57 4 101 -18 140 -71 29 -39 28 -112 0 -152 l-22 -30 36 -55 35
-55 37 42 c65 74 79 177 34 273 -70 152 -210 212 -364 158z"/>
<path d="M10920 3374 c-69 -102 -125 -190 -125 -195 0 -5 122 -92 270 -193
205 -141 273 -182 281 -173 7 7 69 96 138 199 l126 187 -46 32 c-26 17 -49 27
-53 22 -152 -226 -194 -282 -204 -276 -68 43 -127 88 -127 95 0 6 38 65 84
133 l84 123 -39 26 c-21 14 -43 26 -49 26 -5 0 -42 -48 -81 -107 -105 -157
-90 -148 -160 -100 -32 22 -59 45 -59 50 0 5 37 64 83 130 46 67 87 127 91
134 4 7 -11 24 -38 42 -25 17 -46 31 -48 31 -2 -1 -59 -84 -128 -186z"/>
<path d="M1829 2969 c-129 -105 -245 -201 -258 -214 l-23 -23 148 -181 c81
-100 153 -181 159 -181 5 1 26 15 46 33 l36 32 -108 132 c-60 73 -109 136
-108 140 0 5 29 32 64 61 l64 53 88 -106 c48 -59 92 -114 98 -122 11 -14 17
-12 54 17 22 18 41 35 41 38 0 2 -41 53 -91 114 -51 61 -92 116 -93 123 0 6
24 33 55 58 l56 46 94 -115 c52 -64 99 -123 106 -131 11 -14 17 -11 53 17 22
17 40 35 40 40 0 5 -64 87 -141 182 -78 95 -143 174 -144 176 -1 1 -108 -83
-236 -189z"/>
<path d="M10633 2964 c-58 -28 -111 -83 -144 -146 -35 -67 -32 -165 6 -241 36
-72 141 -174 218 -211 153 -75 307 -25 387 125 44 84 47 159 8 235 -41 78 -51
83 -90 39 -49 -56 -52 -64 -33 -85 26 -29 30 -98 7 -140 -59 -109 -192 -107
-311 5 -105 99 -120 207 -39 283 37 34 83 44 128 28 l38 -13 41 48 c45 52 44
56 -22 84 -57 23 -134 19 -194 -11z"/>
<path d="M2290 2563 c-74 -76 -178 -182 -230 -236 l-95 -97 46 -46 45 -45 157
160 c86 89 158 161 161 161 2 0 -25 -116 -61 -257 l-65 -258 48 -42 48 -43
226 232 c124 127 227 235 229 240 2 6 -16 30 -40 54 l-43 44 -159 -162 c-87
-90 -156 -156 -154 -148 2 8 30 122 62 253 l58 239 -44 44 c-24 24 -46 44 -49
44 -3 0 -66 -62 -140 -137z"/>
<path d="M10231 2546 l-44 -45 191 -198 c268 -278 266 -277 288 -265 11 6 32
24 48 41 l29 30 -121 128 c-66 70 -172 179 -234 241 l-114 112 -43 -44z"/>
<path d="M2831 2251 c-17 -21 -31 -43 -31 -49 0 -5 32 -33 70 -63 39 -29 70
-57 70 -61 0 -5 -74 -104 -165 -221 -91 -117 -165 -214 -165 -217 1 -3 23 -22
49 -42 l49 -38 167 215 c91 118 171 215 177 215 6 0 38 -22 73 -50 35 -27 67
-50 71 -50 11 0 64 65 64 79 0 5 -71 64 -157 132 -87 68 -177 138 -199 156
l-42 34 -31 -40z"/>
<path d="M9828 2177 l-47 -42 195 -230 c107 -126 205 -240 218 -253 l23 -23
166 142 166 142 -36 43 -36 43 -32 -27 c-18 -15 -72 -61 -120 -102 -85 -72
-88 -74 -104 -54 -34 42 -343 404 -345 404 0 -1 -22 -20 -48 -43z"/>
<path d="M9480 1934 c-64 -30 -123 -83 -153 -139 -18 -32 -22 -57 -22 -130 0
-80 3 -97 31 -155 114 -239 366 -305 532 -139 64 63 77 100 77 209 0 84 -4
102 -28 152 -16 32 -51 82 -78 112 -103 112 -238 146 -359 90z m191 -117 c93
-49 170 -188 154 -275 -21 -113 -136 -172 -239 -123 -103 50 -180 197 -155
293 28 108 141 157 240 105z"/>
<path d="M3316 1908 c-14 -23 -316 -513 -329 -534 -6 -10 82 -74 101 -74 4 0
31 40 60 90 84 139 68 130 150 82 82 -49 115 -85 106 -116 -3 -12 -23 -48 -44
-81 -21 -33 -42 -72 -45 -87 -6 -24 -2 -30 49 -63 55 -35 83 -38 72 -8 -3 8
17 57 44 109 28 52 50 102 50 110 0 8 -7 28 -15 44 -15 30 -15 30 13 30 15 0
48 10 72 23 94 47 137 187 82 264 -18 25 -207 151 -339 227 -7 4 -18 -3 -27
-16z m231 -248 c34 -30 31 -80 -8 -125 -18 -20 -40 -35 -53 -35 -24 0 -196 98
-196 111 0 5 21 42 46 83 l46 75 71 -44 c39 -24 81 -53 94 -65z"/>
<path d="M8980 1613 c-73 -28 -292 -144 -288 -152 2 -4 70 -139 152 -299 l149
-292 57 32 57 31 -55 104 c-30 57 -52 106 -51 107 2 2 43 25 91 51 96 51 131
86 149 145 24 79 -33 220 -106 262 -47 27 -103 31 -155 11z m88 -129 c50 -35
68 -118 32 -154 -19 -19 -131 -80 -147 -80 -8 0 -93 159 -93 173 0 12 134 76
160 77 14 0 36 -7 48 -16z"/>
<path d="M3811 1268 c-133 -137 -241 -253 -241 -256 0 -4 27 -19 60 -34 l59
-26 44 51 43 50 110 -51 109 -51 -3 -71 -4 -70 57 -26 c32 -13 59 -23 61 -21
2 2 19 145 39 318 19 173 36 328 39 345 4 31 2 33 -64 62 l-68 30 -241 -250z
m222 -66 c-10 -74 -22 -132 -28 -132 -5 1 -41 15 -78 33 l-68 32 93 102 c51
56 94 101 95 99 1 -1 -5 -62 -14 -134z"/>
<path d="M4450 1268 c-104 -303 -189 -562 -185 -568 6 -9 405 -144 409 -139 5
7 36 102 33 104 -1 1 -66 24 -144 49 -79 26 -143 51 -143 55 0 3 38 121 85
261 47 140 82 257 77 261 -6 5 -99 39 -108 39 -1 0 -12 -28 -24 -62z"/>
<path d="M8085 1238 c-33 -11 -62 -22 -64 -24 -3 -3 -20 -697 -16 -702 1 -1
28 6 61 16 l59 18 3 70 3 70 112 37 c62 20 116 37 119 37 3 0 24 -24 47 -54
l41 -55 60 21 c34 11 60 24 58 29 -6 18 -410 559 -416 558 -4 0 -34 -10 -67
-21z m124 -258 c39 -54 74 -106 77 -114 4 -11 -13 -20 -65 -37 -39 -13 -74
-19 -78 -15 -9 8 -18 266 -10 266 3 0 37 -45 76 -100z"/>
<path d="M4984 1146 c-8 -22 -145 -639 -142 -641 2 -1 99 -23 216 -50 117 -26
221 -49 231 -52 15 -4 21 4 31 47 7 28 10 54 7 57 -3 3 -77 21 -164 40 -87 20
-161 38 -165 42 -7 6 22 155 32 164 3 3 70 -10 150 -28 80 -18 148 -30 152
-26 8 7 22 101 15 101 -8 0 -270 60 -283 64 -8 3 -7 25 5 78 20 85 -1 81 195
37 70 -16 134 -29 140 -29 11 0 42 99 34 105 -2 1 -104 25 -226 52 -150 34
-225 46 -228 39z"/>
<path d="M7362 1060 c-18 -4 -36 -10 -39 -14 -7 -7 117 -627 128 -640 7 -7
415 68 427 79 8 7 -22 105 -32 105 -7 0 -75 -13 -152 -29 -76 -17 -139 -29
-140 -28 -1 1 -27 121 -56 267 -53 257 -55 265 -79 267 -13 1 -39 -2 -57 -7z"/>
<path d="M5820 988 c0 -7 -9 -155 -20 -328 -14 -220 -16 -316 -9 -321 6 -3 77
-9 159 -13 169 -8 212 -1 266 46 137 121 152 428 27 550 -50 48 -74 56 -206
68 -155 14 -217 13 -217 -2z m307 -133 c46 -27 66 -69 71 -150 6 -97 -12 -178
-50 -220 -37 -43 -77 -54 -163 -47 l-68 5 7 121 c3 67 9 165 13 220 l6 98 76
-4 c50 -3 88 -11 108 -23z"/>
<path d="M6697 985 c-119 -6 -220 -15 -224 -18 -5 -6 24 -659 30 -662 1 -1
101 4 222 11 121 7 228 13 238 13 14 1 17 11 17 57 l0 56 -162 -8 c-90 -4
-169 -7 -178 -8 -12 -1 -16 16 -20 85 l-5 87 65 6 c36 3 97 6 135 6 108 0 111
2 106 62 l-3 51 -153 -7 -152 -6 -7 52 c-3 29 -6 65 -6 79 l0 26 171 8 171 7
-6 37 c-3 20 -6 46 -6 59 0 12 -3 21 -7 21 -5 -1 -106 -7 -226 -14z"/>
</g>
</svg>
